<?xml version="1.0" standalone="no"?>
<!DOCTYPE svg PUBLIC "-//W3C//DTD SVG 20010904//EN"
 "http://www.w3.org/TR/2001/REC-SVG-20010904/DTD/svg10.dtd">
<svg version="1.0" xmlns="http://www.w3.org/2000/svg"
 width="380.000000pt" height="380.000000pt" viewBox="0 0 380.000000 380.000000"
 preserveAspectRatio="xMidYMid meet">
<metadata>
Created by potrace 1.11, written by Peter Selinger 2001-2013
</metadata>
<g transform="translate(0.000000,380.000000) scale(0.100000,-0.100000)"
fill="#000000" stroke="none">
<path d="M2470 3179 c-120 -13 -217 -64 -305 -161 -28 -31 -117 -173 -215
-343 l-167 -290 -374 -6 c-263 -4 -386 -9 -414 -18 -126 -41 -252 -149 -305
-263 -132 -284 22 -614 325 -693 48 -12 127 -15 411 -15 l351 0 169 -292 c137
-238 179 -304 229 -354 95 -96 211 -144 345 -144 356 1 594 383 437 700 -18
36 -99 181 -181 323 l-150 258 19 32 c11 18 92 159 181 314 196 341 216 405
183 565 -52 248 -281 413 -539 387z m-314 -770 c290 -52 483 -357 409 -644
-46 -176 -194 -324 -370 -370 -181 -47 -389 15 -518 155 -230 250 -159 645
145 805 113 60 212 76 334 54z"/>
</g>
</svg>
