<?xml version="1.0" encoding="utf-8"?>
<!-- Generator: Adobe Illustrator 21.1.0, SVG Export Plug-In . SVG Version: 6.00 Build 0)  -->
<svg version="1.1" id="Layer_1" xmlns="http://www.w3.org/2000/svg" xmlns:xlink="http://www.w3.org/1999/xlink" x="0px" y="0px"
	 viewBox="0 0 1719.7 540.1" style="enable-background:new 0 0 1719.7 540.1;" xml:space="preserve">
<style type="text/css">
	.st0{fill:#78CE7C;}
	.st1{fill:#FFFFFF;}
	.st2{fill:#71B47C;}
	.st3{opacity:0.2;fill:#48C0D6;enable-background:new    ;}
	.st4{fill:#F4C689;}
	.st5{fill:#F7B14A;}
	.st6{fill:#DB9B46;}
	.st7{fill:#00B585;}
	.st8{fill:#48C0D6;}
	.st9{fill:#EC5B5A;}
	.st10{fill:#A04B49;}
</style>
<g>
	<g>
		<g>
			<path class="st0" d="M736.4,262.8c-0.2-33.8-27.7-61.2-61.5-61.2s-61.3,27.3-61.5,61.2l0,0V487h123.1L736.4,262.8L736.4,262.8z"
				/>
		</g>
		<g>
			<g>
				<g>
					<rect x="699.5" y="290.6" class="st1" width="7.1" height="7.1"/>
					<rect x="699.5" y="304.6" class="st1" width="7.1" height="7.1"/>
					<rect x="685.5" y="290.6" class="st1" width="7.1" height="7.1"/>
					<rect x="685.5" y="304.6" class="st1" width="7.1" height="7.1"/>
					<rect x="699.5" y="318.6" class="st1" width="7.1" height="7.1"/>
					<rect x="685.5" y="318.6" class="st1" width="7.1" height="7.1"/>
					<rect x="671.4" y="290.6" class="st1" width="7.1" height="7.1"/>
					<rect x="671.4" y="304.6" class="st1" width="7.1" height="7.1"/>
					<rect x="671.4" y="318.6" class="st1" width="7.1" height="7.1"/>
					<rect x="699.5" y="332.8" class="st1" width="7.1" height="7.1"/>
					<rect x="685.5" y="332.8" class="st1" width="7.1" height="7.1"/>
					<rect x="671.4" y="332.8" class="st1" width="7.1" height="7.1"/>
				</g>
				<rect x="657.4" y="290.6" class="st1" width="7.1" height="7.1"/>
				<rect x="657.4" y="304.6" class="st1" width="7.1" height="7.1"/>
				<rect x="657.4" y="318.6" class="st1" width="7.1" height="7.1"/>
				<rect x="643.4" y="290.6" class="st1" width="7.1" height="7.1"/>
				<rect x="643.4" y="304.6" class="st1" width="7.1" height="7.1"/>
				<rect x="643.4" y="318.6" class="st1" width="7.1" height="7.1"/>
				<rect x="657.4" y="332.8" class="st1" width="7.1" height="7.1"/>
				<rect x="643.4" y="332.8" class="st1" width="7.1" height="7.1"/>
			</g>
			<g>
				<g>
					<rect x="699.5" y="347" class="st1" width="7.1" height="7.1"/>
					<rect x="699.5" y="361.1" class="st1" width="7.1" height="7.1"/>
					<rect x="685.5" y="347" class="st1" width="7.1" height="7.1"/>
					<rect x="685.5" y="361.1" class="st1" width="7.1" height="7.1"/>
					<rect x="699.5" y="375.1" class="st1" width="7.1" height="7.1"/>
					<rect x="685.5" y="375.1" class="st1" width="7.1" height="7.1"/>
					<rect x="671.4" y="347" class="st1" width="7.1" height="7.1"/>
					<rect x="671.4" y="361.1" class="st1" width="7.1" height="7.1"/>
					<rect x="671.4" y="375.1" class="st1" width="7.1" height="7.1"/>
					<rect x="699.5" y="389.2" class="st1" width="7.1" height="7.1"/>
					<rect x="685.5" y="389.2" class="st1" width="7.1" height="7.1"/>
					<rect x="671.4" y="389.2" class="st1" width="7.1" height="7.1"/>
				</g>
				<rect x="657.4" y="347.1" class="st1" width="7.1" height="7.1"/>
				<rect x="657.4" y="361.1" class="st1" width="7.1" height="7.1"/>
				<rect x="657.4" y="375.1" class="st1" width="7.1" height="7.1"/>
				<rect x="643.4" y="347.1" class="st1" width="7.1" height="7.1"/>
				<rect x="643.4" y="361.1" class="st1" width="7.1" height="7.1"/>
				<rect x="643.4" y="375.1" class="st1" width="7.1" height="7.1"/>
				<rect x="657.4" y="389.2" class="st1" width="7.1" height="7.1"/>
				<rect x="643.4" y="389.2" class="st1" width="7.1" height="7.1"/>
			</g>
			<g>
				<g>
					<rect x="699.5" y="405" class="st1" width="7.1" height="7.1"/>
					<rect x="699.5" y="419" class="st1" width="7.1" height="7.1"/>
					<rect x="685.5" y="405" class="st1" width="7.1" height="7.1"/>
					<rect x="685.5" y="419" class="st1" width="7.1" height="7.1"/>
					<rect x="699.5" y="433.1" class="st1" width="7.1" height="7.1"/>
					<rect x="685.5" y="433.1" class="st1" width="7.1" height="7.1"/>
					<rect x="671.4" y="405" class="st1" width="7.1" height="7.1"/>
					<rect x="671.4" y="419" class="st1" width="7.1" height="7.1"/>
					<rect x="671.4" y="433.1" class="st1" width="7.1" height="7.1"/>
					<rect x="699.5" y="447.1" class="st1" width="7.1" height="7.1"/>
					<rect x="685.5" y="447.1" class="st1" width="7.1" height="7.1"/>
					<rect x="671.4" y="447.1" class="st1" width="7.1" height="7.1"/>
				</g>
				<rect x="657.4" y="405" class="st1" width="7.1" height="7.1"/>
				<rect x="657.4" y="419" class="st1" width="7.1" height="7.1"/>
				<rect x="657.4" y="433.1" class="st1" width="7.1" height="7.1"/>
				<rect x="643.4" y="405" class="st1" width="7.1" height="7.1"/>
				<rect x="643.4" y="419" class="st1" width="7.1" height="7.1"/>
				<rect x="643.4" y="433.1" class="st1" width="7.1" height="7.1"/>
				<rect x="657.4" y="447.1" class="st1" width="7.1" height="7.1"/>
				<rect x="643.4" y="447.1" class="st1" width="7.1" height="7.1"/>
			</g>
		</g>
		<path class="st2" d="M707.7,264.1c0-18-14.6-32.7-32.7-32.7s-32.7,14.6-32.7,32.7H707.7z"/>
	</g>
	<path class="st3" d="M656.1,456c-2.2-11.1-12-19.6-23.8-19.6c-5.6,0-10.5,1.9-14.7,5c-7.9-22.8-29.6-39-55-39
		c-10.5,0-20.3,2.7-28.6,7.6c-16.7-25.8-45.7-42.9-78.7-42.9c-30.7,0-58,14.9-75.2,37.8c-5.2-1.6-10.7-2.3-16.4-2.3
		c-30.6,0-55.7,23.7-58,53.6L656.1,456L656.1,456z"/>
	<path class="st3" d="M929.8,267.2c-1.8-9.3-10-16.3-19.8-16.3c-4.6,0-8.8,1.6-12.2,4.2c-6.6-18.9-24.7-32.6-45.8-32.6
		c-8.7,0-16.9,2.3-23.9,6.3C814.2,207.3,790,193,762.5,193c-25.7,0-48.3,12.4-62.6,31.5c-4.3-1.3-8.9-1.9-13.7-1.9
		c-25.5,0-46.4,19.7-48.3,44.7L929.8,267.2L929.8,267.2z"/>
	<path class="st3" d="M1385,353.6c-1.8-9.3-10-16.3-19.8-16.3c-4.6,0-8.8,1.6-12.2,4.2c-6.6-18.9-24.7-32.6-45.8-32.6
		c-8.7,0-16.9,2.3-23.9,6.3c-13.9-21.5-38.1-35.8-65.6-35.8c-25.7,0-48.3,12.4-62.6,31.5c-4.3-1.3-8.9-1.9-13.7-1.9
		c-25.5,0-46.4,19.7-48.3,44.7L1385,353.6L1385,353.6z"/>
	<g>
		<path class="st4" d="M1114.5,316.3c-27.2,0-49.2,22-49.2,49.2c0,27.2,22,49.2,49.2,49.2c27.2,0,49.2-22,49.2-49.2
			C1163.7,338.3,1141.7,316.3,1114.5,316.3z M1114.5,406.4c-22.6,0-41-18.4-41-41s18.4-41,41-41c22.6,0,41,18.4,41,41
			S1137.2,406.4,1114.5,406.4z"/>
		<path class="st5" d="M1114.3,269.5c-13.4,0.2-24.1,11.2-24.1,24.6v9.4c0,2.4,2,4.4,4.4,4.4h39.7c2.4,0,4.4-2,4.4-4.4v-9.6
			C1138.8,280.4,1127.8,269.4,1114.3,269.5z"/>
		<path class="st5" d="M1079.7,319.5c-2.2,0.7-4.3,1.8-6.1,3.6c-5.4,5.4-5.4,14.2,0,19.5c5.4,5.4,14.2,5.4,19.5,0
			c1.7-1.7,2.9-3.9,3.6-6.1l0,0c1.1-3.9,3.3-7.6,6.2-10.4l0,0c0.1-0.1,0.2-0.2,0.2-0.2c3.6-3.6,3.6-9.4,0-13s-9.4-3.6-13,0
			c-0.1,0.1-0.2,0.2-0.2,0.2l0,0C1087.2,316.2,1083.7,318.4,1079.7,319.5L1079.7,319.5z"/>
		<path class="st5" d="M1149.8,319.5c2.2,0.7,4.3,1.8,6.1,3.6c5.4,5.4,5.4,14.2,0,19.5c-5.4,5.4-14.2,5.4-19.5,0
			c-1.7-1.7-2.9-3.9-3.6-6.1l0,0c-1.1-3.9-3.3-7.6-6.2-10.4l0,0c-0.1-0.1-0.2-0.2-0.2-0.2c-3.6-3.6-3.6-9.4,0-13s9.4-3.6,13,0
			c0.1,0.1,0.2,0.2,0.2,0.2l0,0C1142.2,316.2,1145.8,318.4,1149.8,319.5L1149.8,319.5z"/>
		<path class="st6" d="M1154.4,353.2c-2-2.2-4.9-4.2-8.4-6.2c-19.5-11-43.4-11-62.9,0c-3.4,1.9-6.4,4-8.4,6.2
			c-16.5,18.2-17.7,41.9-17.7,66.4v6.3h57.6h57.6v-6.3C1172.1,395.1,1170.8,371.4,1154.4,353.2z"/>
		<path class="st5" d="M1116.5,357.1c0.6-4.2,3.3-7.1,5.5-8.6c1.6-1.2,2.5-2.9,2.7-4.8c0.3-3.8,1.5-7.5,3.3-10.8l0,0
			c1.3-2.4,2.2-5.1,2.2-8.1c0-2.5-0.7-4.8-1.9-7c-5.9-10.7-21.6-10.7-27.6,0c-1.2,2.2-1.9,4.5-1.9,7c0,3,0.7,5.7,2.2,8.1l0,0
			c1.9,3.3,3,7.1,3.3,10.8c0.2,1.9,1.1,3.7,2.7,4.7c2.2,1.6,4.9,4.3,5.5,8.6c0.2,1,1,1.7,2,1.7l0,0
			C1115.5,358.8,1116.3,358.1,1116.5,357.1z"/>
		<path class="st4" d="M1118.1,313.1c0.5,0.2,1.1-0.3,0.9-0.8c-0.2-0.4-0.3-0.9-0.7-1.3l0,0l0,0l0,0c-1.2-1.9-1.9-4.3,3.1-7.6
			c3.6-2.4,5.8-6.5,5.6-11.1c-0.3-6.5-5.7-11.9-12.2-12c-7.1-0.2-13,5.6-13,12.6c0,4.4,2.2,8.2,5.6,10.5c5.1,3.3,4.4,5.8,3.1,7.6
			l0,0l0,0l0,0c-0.2,0.4-0.4,0.8-0.7,1.3c-0.2,0.6,0.4,1.1,0.9,0.8l0,0C1113.2,312.2,1115.8,312.2,1118.1,313.1L1118.1,313.1z"/>
	</g>
	<polygon class="st5" points="980.5,279.9 1052.4,324.2 1052.4,541 908.6,541 908.6,324.2 	"/>
	<g>
		<g>
			<rect x="1015.9" y="351.6" class="st1" width="6.5" height="36.5"/>
			<rect x="1003" y="351.6" class="st1" width="6.5" height="36.5"/>
			<rect x="990.1" y="351.6" class="st1" width="6.5" height="36.5"/>
			<rect x="977.2" y="351.6" class="st1" width="6.5" height="36.5"/>
			<rect x="964.3" y="351.6" class="st1" width="6.5" height="36.5"/>
			<rect x="951.3" y="351.6" class="st1" width="6.5" height="36.5"/>
			<rect x="938.4" y="351.6" class="st1" width="6.5" height="36.5"/>
		</g>
	</g>
	<path class="st2" d="M763.1,520.3c-4.2,0-8,1.2-11.3,3.3c-6.7-14.9-21.8-25.5-39.2-25.5c-10.3,0-19.8,3.7-27.2,9.7
		c-7.3-6.1-16.7-9.6-26.9-9.7c-10.5-9.8-24.6-15.8-40-15.8c-16.9,0-32.2,7.2-42.9,18.7c-4.8-1.9-10.1-3-15.6-3c-0.4,0-0.7,0-1.2,0.1
		c-0.4,0-0.9-0.1-1.4-0.1c-12.5,0-23.7,5.3-31.5,13.8c-7.9-8.5-19-13.8-31.5-13.8c-3.3,0-6.6,0.4-9.6,1.1
		c-12.5-16.2-32.1-26.7-54.2-26.7c-37.8,0-68.4,30.6-68.4,68.4h154.7h147.6h119.4C783.8,529.6,774.5,520.3,763.1,520.3z"/>
	<path class="st2" d="M1393.4,520.3c-4.2,0-8,1.2-11.3,3.3c-6.7-14.9-21.8-25.5-39.2-25.5c-10.3,0-19.8,3.7-27.2,9.7
		c-7.3-6.1-16.7-9.6-26.9-9.7c-10.5-9.8-24.6-15.8-40-15.8c-16.9,0-32.2,7.2-42.9,18.7c-4.8-1.9-10.1-3-15.6-3c-0.4,0-0.7,0-1.2,0.1
		c-0.4,0-0.9-0.1-1.4-0.1c-12.5,0-23.7,5.3-31.5,13.8c-7.9-8.5-19-13.8-31.5-13.8c-3.3,0-6.6,0.4-9.6,1.1
		c-12.5-16.2-32.1-26.7-54.2-26.7c-37.8,0-68.4,30.6-68.4,68.4h154.7h147.6H1414C1414.1,529.6,1404.8,520.3,1393.4,520.3z"/>
	<polygon class="st7" points="1272.7,323.1 1272.7,301.7 1201,301.7 1201,323.1 1175.6,323.1 1175.6,541 1298,541 1298,323.1 	"/>
	<g>
		<rect x="1260.9" y="367.1" class="st1" width="4.4" height="24.7"/>
		<rect x="1252.2" y="367.1" class="st1" width="4.4" height="24.7"/>
		<rect x="1243.4" y="367.1" class="st1" width="4.4" height="24.7"/>
		<rect x="1234.7" y="367.1" class="st1" width="4.4" height="24.7"/>
		<rect x="1225.8" y="367.1" class="st1" width="4.4" height="24.7"/>
		<rect x="1217.1" y="367.1" class="st1" width="4.4" height="24.7"/>
		<rect x="1208.3" y="367.1" class="st1" width="4.4" height="24.7"/>
	</g>
	<g>
		<rect x="1260.9" y="405.5" class="st1" width="4.4" height="24.7"/>
		<rect x="1252.2" y="405.5" class="st1" width="4.4" height="24.7"/>
		<rect x="1243.4" y="405.5" class="st1" width="4.4" height="24.7"/>
		<rect x="1234.7" y="405.5" class="st1" width="4.4" height="24.7"/>
		<rect x="1225.8" y="405.4" class="st1" width="4.4" height="24.7"/>
		<rect x="1217.1" y="405.4" class="st1" width="4.4" height="24.7"/>
		<rect x="1208.3" y="405.4" class="st1" width="4.4" height="24.7"/>
	</g>
	<g>
		<rect x="1260.9" y="443.8" class="st1" width="4.4" height="24.7"/>
		<rect x="1252.2" y="443.8" class="st1" width="4.4" height="24.7"/>
		<rect x="1243.4" y="443.8" class="st1" width="4.4" height="24.7"/>
		<rect x="1234.7" y="443.8" class="st1" width="4.4" height="24.7"/>
		<rect x="1225.8" y="443.7" class="st1" width="4.4" height="24.7"/>
		<rect x="1217.1" y="443.7" class="st1" width="4.4" height="24.7"/>
		<rect x="1208.3" y="443.7" class="st1" width="4.4" height="24.7"/>
	</g>
	<rect x="480.9" y="280.4" class="st5" width="122.5" height="260.7"/>
	<g>
		<rect x="511.5" y="350.7" class="st1" width="22.3" height="22.3"/>
		<rect x="550.4" y="350.7" class="st1" width="22.3" height="22.3"/>
		<rect x="511.5" y="386.5" class="st1" width="22.3" height="22.3"/>
		<rect x="550.4" y="386.5" class="st1" width="22.3" height="22.3"/>
		<rect x="511.5" y="314.9" class="st1" width="22.3" height="22.3"/>
		<rect x="550.4" y="314.9" class="st1" width="22.3" height="22.3"/>
		<rect x="511.5" y="422.2" class="st1" width="22.3" height="22.3"/>
		<rect x="550.4" y="422.2" class="st1" width="22.3" height="22.3"/>
		<rect x="511.5" y="458" class="st1" width="22.3" height="22.3"/>
		<rect x="550.4" y="458" class="st1" width="22.3" height="22.3"/>
		<rect x="511.5" y="493.8" class="st1" width="22.3" height="22.3"/>
		<rect x="550.4" y="493.8" class="st1" width="22.3" height="22.3"/>
	</g>
	<rect x="603" y="418.5" class="st8" width="122.5" height="122.5"/>
	<g>
		<rect x="627.3" y="437.3" class="st1" width="13.3" height="13.3"/>
		<rect x="647.5" y="437.3" class="st1" width="13.3" height="13.3"/>
		<rect x="667.7" y="437.3" class="st1" width="13.3" height="13.3"/>
		<rect x="687.9" y="437.3" class="st1" width="13.3" height="13.3"/>
		<rect x="627.3" y="461.2" class="st1" width="13.3" height="13.3"/>
		<rect x="647.5" y="461.2" class="st1" width="13.3" height="13.3"/>
		<rect x="667.7" y="461.2" class="st1" width="13.3" height="13.3"/>
		<rect x="687.9" y="461.2" class="st1" width="13.3" height="13.3"/>
		<rect x="627.3" y="485.1" class="st1" width="13.3" height="13.3"/>
		<rect x="647.5" y="485.1" class="st1" width="13.3" height="13.3"/>
		<rect x="667.7" y="485.1" class="st1" width="13.3" height="13.3"/>
		<rect x="687.9" y="485.1" class="st1" width="13.3" height="13.3"/>
		<rect x="627.3" y="509.1" class="st1" width="13.3" height="13.3"/>
		<rect x="647.5" y="509.1" class="st1" width="13.3" height="13.3"/>
		<rect x="667.7" y="509.1" class="st1" width="13.3" height="13.3"/>
		<rect x="687.9" y="509.1" class="st1" width="13.3" height="13.3"/>
	</g>
	<polygon class="st8" points="821.8,237.3 821.8,541 914.5,541 914.5,284.1 	"/>
	<g>
		<g>
			<rect x="891.1" y="311.4" class="st1" width="4.2" height="23.5"/>
			<rect x="882.7" y="311.4" class="st1" width="4.2" height="23.5"/>
			<rect x="874.4" y="311.4" class="st1" width="4.2" height="23.5"/>
			<rect x="866" y="311.4" class="st1" width="4.2" height="23.5"/>
			<rect x="857.7" y="311.4" class="st1" width="4.2" height="23.5"/>
			<rect x="849.4" y="311.4" class="st1" width="4.2" height="23.5"/>
			<rect x="841" y="311.4" class="st1" width="4.2" height="23.5"/>
		</g>
		<g>
			<rect x="891.1" y="347.7" class="st1" width="4.2" height="23.5"/>
			<rect x="882.7" y="347.7" class="st1" width="4.2" height="23.5"/>
			<rect x="874.4" y="347.7" class="st1" width="4.2" height="23.5"/>
			<rect x="866" y="347.7" class="st1" width="4.2" height="23.5"/>
			<rect x="857.7" y="347.7" class="st1" width="4.2" height="23.5"/>
			<rect x="849.4" y="347.7" class="st1" width="4.2" height="23.5"/>
			<rect x="841" y="347.7" class="st1" width="4.2" height="23.5"/>
		</g>
		<g>
			<rect x="891.1" y="384.1" class="st1" width="4.2" height="23.5"/>
			<rect x="882.7" y="384.1" class="st1" width="4.2" height="23.5"/>
			<rect x="874.4" y="384.1" class="st1" width="4.2" height="23.5"/>
			<rect x="866" y="384.1" class="st1" width="4.2" height="23.5"/>
			<rect x="857.7" y="384.1" class="st1" width="4.2" height="23.5"/>
			<rect x="849.4" y="384.1" class="st1" width="4.2" height="23.5"/>
			<rect x="841" y="384.1" class="st1" width="4.2" height="23.5"/>
		</g>
	</g>
	<polygon class="st5" points="773,301.7 821.8,338.8 821.8,541 724,541 724,338.8 	"/>
	<g>
		<g>
			<rect x="797" y="367.1" class="st1" width="4.4" height="24.7"/>
			<rect x="788.2" y="367.1" class="st1" width="4.4" height="24.7"/>
			<rect x="779.4" y="367.1" class="st1" width="4.4" height="24.7"/>
			<rect x="770.7" y="367.1" class="st1" width="4.4" height="24.7"/>
			<rect x="761.9" y="367.1" class="st1" width="4.4" height="24.7"/>
			<rect x="753.1" y="367.1" class="st1" width="4.4" height="24.7"/>
			<rect x="744.3" y="367.1" class="st1" width="4.4" height="24.7"/>
		</g>
		<g>
			<rect x="797" y="405.5" class="st1" width="4.4" height="24.7"/>
			<rect x="788.2" y="405.5" class="st1" width="4.4" height="24.7"/>
			<rect x="779.4" y="405.5" class="st1" width="4.4" height="24.7"/>
			<rect x="770.7" y="405.5" class="st1" width="4.4" height="24.7"/>
			<rect x="761.9" y="405.4" class="st1" width="4.4" height="24.7"/>
			<rect x="753.1" y="405.4" class="st1" width="4.4" height="24.7"/>
			<rect x="744.3" y="405.4" class="st1" width="4.4" height="24.7"/>
		</g>
		<g>
			<rect x="797" y="443.8" class="st1" width="4.4" height="24.7"/>
			<rect x="788.2" y="443.8" class="st1" width="4.4" height="24.7"/>
			<rect x="779.4" y="443.8" class="st1" width="4.4" height="24.7"/>
			<rect x="770.7" y="443.8" class="st1" width="4.4" height="24.7"/>
			<rect x="761.9" y="443.7" class="st1" width="4.4" height="24.7"/>
			<rect x="753.1" y="443.7" class="st1" width="4.4" height="24.7"/>
			<rect x="744.3" y="443.7" class="st1" width="4.4" height="24.7"/>
		</g>
	</g>
	<g>
		<rect x="938.1" y="411.5" class="st7" width="203.5" height="122.5"/>
	</g>
	<g>
		<g>
			<g>
				<rect x="1033.2" y="441.2" class="st1" width="4.4" height="24.7"/>
				<rect x="1024.4" y="441.2" class="st1" width="4.4" height="24.7"/>
				<rect x="1015.6" y="441.2" class="st1" width="4.4" height="24.7"/>
				<rect x="1006.9" y="441.2" class="st1" width="4.4" height="24.7"/>
				<rect x="998.1" y="441.2" class="st1" width="4.4" height="24.7"/>
				<rect x="989.3" y="441.2" class="st1" width="4.4" height="24.7"/>
				<rect x="980.5" y="441.2" class="st1" width="4.4" height="24.7"/>
			</g>
			<g>
				<rect x="1033.2" y="479.5" class="st1" width="4.4" height="24.7"/>
				<rect x="1024.4" y="479.5" class="st1" width="4.4" height="24.7"/>
				<rect x="1015.6" y="479.5" class="st1" width="4.4" height="24.7"/>
				<rect x="1006.9" y="479.5" class="st1" width="4.4" height="24.7"/>
				<rect x="998.1" y="479.5" class="st1" width="4.4" height="24.7"/>
				<rect x="989.3" y="479.5" class="st1" width="4.4" height="24.7"/>
				<rect x="980.5" y="479.5" class="st1" width="4.4" height="24.7"/>
			</g>
		</g>
		<g>
			<g>
				<rect x="1094.9" y="441.2" class="st1" width="4.4" height="24.7"/>
				<rect x="1086.1" y="441.2" class="st1" width="4.4" height="24.7"/>
				<rect x="1077.4" y="441.2" class="st1" width="4.4" height="24.7"/>
				<rect x="1068.6" y="441.2" class="st1" width="4.4" height="24.7"/>
				<rect x="1059.8" y="441.2" class="st1" width="4.4" height="24.7"/>
				<rect x="1051" y="441.2" class="st1" width="4.4" height="24.7"/>
				<rect x="1042.3" y="441.2" class="st1" width="4.4" height="24.7"/>
			</g>
			<g>
				<rect x="1094.9" y="479.5" class="st1" width="4.4" height="24.7"/>
				<rect x="1086.1" y="479.5" class="st1" width="4.4" height="24.7"/>
				<rect x="1077.4" y="479.5" class="st1" width="4.4" height="24.7"/>
				<rect x="1068.6" y="479.5" class="st1" width="4.4" height="24.7"/>
				<rect x="1059.8" y="479.5" class="st1" width="4.4" height="24.7"/>
				<rect x="1051" y="479.5" class="st1" width="4.4" height="24.7"/>
				<rect x="1042.3" y="479.5" class="st1" width="4.4" height="24.7"/>
			</g>
		</g>
	</g>
	<g>
		<polygon class="st9" points="1183.8,374.5 1123.7,374.5 1095.6,396 1095.6,527.4 1211.9,527.4 1211.9,396 		"/>
	</g>
	<g>
		<g>
			<rect x="1118.2" y="403.6" class="st10" width="5.5" height="30.7"/>
			<rect x="1129.2" y="403.6" class="st10" width="5.5" height="30.7"/>
			<rect x="1140.1" y="403.6" class="st10" width="5.5" height="30.7"/>
			<rect x="1151" y="403.6" class="st10" width="5.5" height="30.7"/>
			<rect x="1161.9" y="403.6" class="st10" width="5.5" height="30.7"/>
			<rect x="1172.8" y="403.6" class="st10" width="5.5" height="30.7"/>
			<rect x="1183.8" y="403.6" class="st10" width="5.5" height="30.7"/>
		</g>
		<g>
			<rect x="1118.2" y="440.8" class="st10" width="5.5" height="30.7"/>
			<rect x="1129.2" y="440.8" class="st10" width="5.5" height="30.7"/>
			<rect x="1140.1" y="440.8" class="st10" width="5.5" height="30.7"/>
			<rect x="1151" y="440.8" class="st10" width="5.5" height="30.7"/>
			<rect x="1161.9" y="440.8" class="st10" width="5.5" height="30.7"/>
			<rect x="1172.8" y="440.8" class="st10" width="5.5" height="30.7"/>
			<rect x="1183.8" y="440.8" class="st10" width="5.5" height="30.7"/>
		</g>
		<g>
			<rect x="1118.2" y="478.1" class="st10" width="5.5" height="30.7"/>
			<rect x="1129.2" y="478.1" class="st10" width="5.5" height="30.7"/>
			<rect x="1140.1" y="478.1" class="st10" width="5.5" height="30.7"/>
			<rect x="1151" y="478.1" class="st10" width="5.5" height="30.7"/>
			<rect x="1161.9" y="478" class="st10" width="5.5" height="30.7"/>
			<rect x="1172.8" y="478" class="st10" width="5.5" height="30.7"/>
			<rect x="1183.8" y="478" class="st10" width="5.5" height="30.7"/>
		</g>
	</g>
	<path class="st0" d="M576.2,525.6c-1,0-1.9,0.2-2.8,0.2c-6.3-18.7-24.1-32.1-44.8-32.1c-15.9,0-30.1,7.9-38.7,20.1
		c-0.3,0-0.7-0.1-1-0.1c-6.8,0-13.1,2.6-17.9,6.7c-7-11.5-19.5-19.2-34-19.2c-21.9,0-39.7,17.8-39.7,39.7h194.3
		C591.7,532.5,584.8,525.6,576.2,525.6z"/>
	<path class="st0" d="M783.9,532.1c-0.6,0-1.1,0.1-1.6,0.2c-3.7-10.8-13.9-18.5-25.8-18.5c-9.2,0-17.4,4.6-22.3,11.6
		c-0.2,0-0.4,0-0.5,0c-3.9,0-7.6,1.5-10.3,3.9c-4-6.6-11.3-11-19.5-11c-12.6,0-22.9,10.2-22.9,22.9h111.9
		C792.8,536.1,788.8,532.1,783.9,532.1z"/>
	<path class="st0" d="M1031.6,526.8c-0.9,0-1.7,0.1-2.6,0.2c-5.8-17.1-22-29.5-41.2-29.5c-14.7,0-27.7,7.3-35.5,18.5
		c-0.3,0-0.6-0.1-0.9-0.1c-6.3,0-12,2.3-16.4,6.2c-6.4-10.5-18-17.6-31.2-17.6c-20.2,0-36.5,16.3-36.5,36.5H1046
		C1045.8,533.2,1039.4,526.8,1031.6,526.8z"/>
	<path class="st0" d="M1339.5,523.3c-1.1,0-2.2,0.2-3.2,0.3c-7.3-21.4-27.5-36.8-51.4-36.8c-18.4,0-34.5,9.1-44.3,23.1
		c-0.4,0-0.7-0.1-1.1-0.1c-7.9,0-15,2.9-20.5,7.7c-8-13.1-22.4-21.9-38.9-21.9c-25.1,0-45.4,20.3-45.4,45.4h222.6
		C1357.2,531.2,1349.3,523.3,1339.5,523.3z"/>
	<path class="st0" d="M996.3,520.9c1.2,0,2.4,0.2,3.7,0.3c8.2-24.3,31.2-41.8,58.3-41.8c20.8,0,39.2,10.3,50.3,26.2
		c0.4,0,0.8-0.1,1.2-0.1c8.9,0,17,3.3,23.3,8.8c9.1-14.9,25.4-24.9,44.2-24.9c28.5,0,51.6,23.1,51.6,51.6H976.3
		C976.2,529.9,985.2,520.9,996.3,520.9z"/>
</g>
</svg>
