<?xml version="1.0" encoding="utf-8"?>
<!-- Generator: Adobe Illustrator 21.1.0, SVG Export Plug-In . SVG Version: 6.00 Build 0)  -->
<svg version="1.1" id="Layer_1" xmlns="http://www.w3.org/2000/svg" xmlns:xlink="http://www.w3.org/1999/xlink" x="0px" y="0px"
	 viewBox="0 0 556 316" style="enable-background:new 0 0 556 316;" xml:space="preserve">
<style type="text/css">
	.st0{fill:#4A5072;}
	.st1{fill:#F1AAB4;}
	.st2{fill:#EC5B5A;}
	.st3{opacity:0.1;fill:#4A5072;enable-background:new    ;}
	.st4{fill:none;stroke:#F4F4F4;stroke-width:10;stroke-linecap:round;stroke-linejoin:round;stroke-miterlimit:10;}
	.st5{fill:#F4F4F4;}
	
		.st6{opacity:0.5;fill:none;stroke:#FFFFFF;stroke-width:4;stroke-linecap:round;stroke-linejoin:round;stroke-miterlimit:10;enable-background:new    ;}
	
		.st7{opacity:0.2;fill:none;stroke:#4A5072;stroke-width:4;stroke-linecap:round;stroke-linejoin:round;stroke-miterlimit:10;enable-background:new    ;}
	.st8{opacity:0.2;fill:#4A5072;enable-background:new    ;}
	.st9{fill:#FFC306;}
</style>
<g>
	<path class="st0" d="M201.1,76.3L201.1,76.3c-24.4,0-44.3,19.8-44.3,44.3v64.3c0,13.4,10.9,24.3,24.3,24.3h40
		c13.4,0,24.3-10.9,24.3-24.3v-64.3C245.4,96.1,225.6,76.3,201.1,76.3z"/>
	<rect x="192.7" y="111" class="st1" width="16.9" height="71.1"/>
	<path class="st2" d="M212.4,168.5H190c-3.2,0-5.9,2.6-5.9,5.9v13.5c0,3.2,2.6,5.9,5.9,5.9h22.4c3.2,0,5.9-2.6,5.9-5.9v-13.5
		C218.2,171.1,215.6,168.5,212.4,168.5z"/>
	<path class="st3" d="M209.6,162.5v-50.3h-16.9v50.3c2.7,0.7,5.5,1.1,8.5,1.1C204.1,163.6,206.9,163.2,209.6,162.5z"/>
	<path class="st2" d="M201.1,178.6c-37,0-67,30-67,67v48.9h134v-48.9C268.1,208.6,238.1,178.6,201.1,178.6z"/>
	<rect x="156.1" y="294.5" class="st0" width="90.2" height="21.5"/>
	<rect x="360.8" y="115.5" class="st1" width="16.9" height="71.1"/>
	<path class="st2" d="M380.5,173H358c-3.2,0-5.9,2.6-5.9,5.9v13.5c0,3.2,2.6,5.9,5.9,5.9h22.4c3.2,0,5.9-2.6,5.9-5.9v-13.5
		C386.3,175.6,383.7,173,380.5,173z"/>
	<path class="st2" d="M369.2,183.1c-37,0-67,30-67,67V299h134v-48.9C436.2,213.1,406.2,183.1,369.2,183.1z"/>
	<rect x="324.2" y="299" class="st0" width="90.2" height="17"/>
	<line class="st4" x1="489.6" y1="91.1" x2="414.3" y2="139.3"/>
	<g>
		<circle class="st5" cx="482.9" cy="84" r="61"/>
		<path class="st6" d="M532.9,95.8c-3.9,24.1-24.8,42.5-50,42.5c-10.3,0-19.9-3.1-27.9-8.4"/>
		<path class="st6" d="M533.6,88.7C533.6,89,533.6,88.4,533.6,88.7"/>
	</g>
	<g>
		<line class="st7" x1="181" y1="233.5" x2="190.7" y2="243.2"/>
		<line class="st7" x1="197.3" y1="233.5" x2="207" y2="243.2"/>
		<line class="st7" x1="213.6" y1="233.5" x2="223.3" y2="243.2"/>
	</g>
	<g>
		<line class="st7" x1="349.3" y1="234.6" x2="358.9" y2="244.3"/>
		<line class="st7" x1="365.5" y1="234.6" x2="375.2" y2="244.3"/>
		<line class="st7" x1="381.8" y1="234.6" x2="391.5" y2="244.3"/>
	</g>
	<rect x="302.2" y="277.1" class="st1" width="21.9" height="38.9"/>
	<rect x="414.3" y="277.1" class="st1" width="21.9" height="38.9"/>
	<rect x="134.1" y="272.6" class="st1" width="21.9" height="43.4"/>
	<rect x="246.2" y="272.6" class="st1" width="21.9" height="43.4"/>
	<circle class="st1" cx="201.1" cy="124" r="33.1"/>
	<path class="st3" d="M377.7,167.3V117h-16.9v50.3c2.7,0.7,5.5,1.1,8.5,1.1C372.2,168.4,375,168,377.7,167.3z"/>
	<circle class="st1" cx="369.2" cy="128.5" r="33.1"/>
	<g>
		<rect x="134.1" y="265" class="st2" width="21.9" height="7.6"/>
		<rect x="134.1" y="265" class="st8" width="21.9" height="7.6"/>
	</g>
	<g>
		<rect x="246.2" y="265" class="st2" width="21.9" height="7.6"/>
		<rect x="246.2" y="265" class="st8" width="21.9" height="7.6"/>
	</g>
	<g>
		<rect x="302.2" y="269.5" class="st2" width="21.9" height="7.6"/>
		<rect x="302.2" y="269.5" class="st8" width="21.9" height="7.6"/>
	</g>
	<g>
		<rect x="414.3" y="269.5" class="st2" width="21.9" height="7.6"/>
		<rect x="414.3" y="269.5" class="st8" width="21.9" height="7.6"/>
	</g>
	<g>
		<line class="st4" x1="66.4" y1="84" x2="141.7" y2="132.2"/>
		<line class="st4" x1="66.4" y1="84" x2="141.7" y2="132.2"/>
		<g>
			<circle class="st5" cx="73.1" cy="80.4" r="61"/>
			<path class="st6" d="M123.1,92.3c-3.9,24.1-24.8,42.5-50,42.5c-10.3,0-19.9-3.1-27.9-8.4"/>
			<path class="st6" d="M123.8,85.1C123.8,85.4,123.8,84.8,123.8,85.1"/>
		</g>
		<polygon class="st9" points="87,56.3 59.2,56.3 45.3,80.4 59.2,104.5 87,104.5 100.9,80.4 		"/>
	</g>
	
		<rect x="463.2" y="64.3" transform="matrix(0.7071 -0.7071 0.7071 0.7071 82.0362 366.0621)" class="st9" width="39.4" height="39.4"/>
</g>
</svg>
