<?xml version="1.0" encoding="UTF-8"?>
<svg width="60px" height="60px" viewBox="0 0 60 60" version="1.1" xmlns="http://www.w3.org/2000/svg" xmlns:xlink="http://www.w3.org/1999/xlink">
    <!-- Generator: Sketch 46 (44423) - http://www.bohemiancoding.com/sketch -->
    <title>Page 1 Copy 4</title>
    <desc>Created with Sketch.</desc>
    <defs></defs>
    <g id="Symbols" stroke="none" stroke-width="1" fill="none" fill-rule="evenodd">
        <g id="rate" transform="translate(-29.000000, -146.000000)" fill="#FFFFFF">
            <g id="Page-1-Copy-4" transform="translate(29.213899, 146.246831)">
                <g id="Group-3">
                    <path d="M29.4390081,55.2015588 C15.3361367,55.2015588 3.85915479,43.6895008 3.85915479,29.5386885 C3.85915479,15.3878761 15.3361367,3.8758181 29.4390081,3.8758181 C43.5418795,3.8758181 55.0149362,15.3878761 55.0149362,29.5386885 C55.0149362,43.6895008 43.5418795,55.2015588 29.4390081,55.2015588 M29.4390081,0.000393843928 C13.1812588,0.000393843928 0.000785019281,13.225673 0.000785019281,29.5386885 C0.000785019281,45.851704 13.1812588,59.0769831 29.4390081,59.0769831 C45.6967574,59.0769831 58.8772311,45.851704 58.8772311,29.5386885 C58.8772311,13.225673 45.6967574,0.000393843928 29.4390081,0.000393843928" id="Fill-1"></path>
                </g>
                <path d="M22.2156531,22.1170935 C22.2156531,20.4235646 20.8457945,19.0490493 19.158003,19.0490493 C17.4702116,19.0490493 16.0964279,20.4235646 16.0964279,22.1170935 C16.0964279,23.8145608 17.4702116,25.1851377 19.158003,25.1851377 C20.8457945,25.1851377 22.2156531,23.8145608 22.2156531,22.1170935" id="Fill-4"></path>
                <path d="M42.8110265,22.1170935 C42.8110265,20.4235646 41.4411679,19.0490493 39.7533764,19.0490493 C38.0655849,19.0490493 36.6918012,20.4235646 36.6918012,22.1170935 C36.6918012,23.8145608 38.0655849,25.1851377 39.7533764,25.1851377 C41.4411679,25.1851377 42.8110265,23.8145608 42.8110265,22.1170935" id="Fill-6"></path>
                <path d="M14.2543801,35.3148035 C16.4642094,41.7738439 22.5402586,46.1967112 29.4562785,46.1967112 C36.3683733,46.1967112 42.4404974,41.7738439 44.6542518,35.3148035 L40.999987,34.0584414 C39.3200458,38.9617983 34.7041324,42.321287 29.4562785,42.321287 C24.2005744,42.321287 19.584661,38.9617983 17.9086449,34.0545029 L14.2543801,35.3148035 Z" id="Fill-8"></path>
            </g>
        </g>
    </g>
</svg>