<?xml version="1.0" encoding="UTF-8"?>
<svg width="61px" height="62px" viewBox="0 0 61 62" version="1.1" xmlns="http://www.w3.org/2000/svg" xmlns:xlink="http://www.w3.org/1999/xlink">
    <!-- Generator: Sketch 46 (44423) - http://www.bohemiancoding.com/sketch -->
    <title>Group 24 Copy 2</title>
    <desc>Created with Sketch.</desc>
    <defs></defs>
    <g id="Symbols" stroke="none" stroke-width="1" fill="none" fill-rule="evenodd">
        <g id="rate" transform="translate(-27.000000, -286.000000)" fill="#FFFFFF">
            <g id="Group-24-Copy-2" transform="translate(27.156340, 286.160828)">
                <path d="M30.3039521,57.602302 C15.7867259,57.602302 3.97254016,45.5894932 3.97254016,30.8231496 C3.97254016,16.0568061 15.7867259,4.04399723 30.3039521,4.04399723 C44.8211783,4.04399723 56.6313236,16.0568061 56.6313236,30.8231496 C56.6313236,45.5894932 44.8211783,57.602302 30.3039521,57.602302 M30.3039521,0 C13.5685358,0 0.00080808384,13.8005515 0.00080808384,30.8231496 C0.00080808384,47.8457477 13.5685358,61.6462993 30.3039521,61.6462993 C47.0393684,61.6462993 60.6070961,47.8457477 60.6070961,30.8231496 C60.6070961,13.8005515 47.0393684,0 30.3039521,0" id="Fill-1"></path>
                <path d="M22.8683686,23.0791415 C22.8683686,21.3119476 21.4582623,19.8776437 19.7208821,19.8776437 C17.9835018,19.8776437 16.5693551,21.3119476 16.5693551,23.0791415 C16.5693551,24.8504452 17.9835018,26.2806393 19.7208821,26.2806393 C21.4582623,26.2806393 22.8683686,24.8504452 22.8683686,23.0791415" id="Fill-4"></path>
                <path d="M44.0688522,23.0791415 C44.0688522,21.3119476 42.6587459,19.8776437 40.9213657,19.8776437 C39.1839854,19.8776437 37.7698387,21.3119476 37.7698387,23.0791415 C37.7698387,24.8504452 39.1839854,26.2806393 40.9213657,26.2806393 C42.6587459,26.2806393 44.0688522,24.8504452 44.0688522,23.0791415" id="Fill-6"></path>
                <polygon id="Fill-8" points="14.6707621 38.9107331 45.9638089 38.9107331 45.9638089 35.0845528 14.6707621 35.0845528"></polygon>
            </g>
        </g>
    </g>
</svg>