<?xml version="1.0" encoding="UTF-8"?>
<svg width="45px" height="45px" viewBox="0 0 45 45" version="1.1" xmlns="http://www.w3.org/2000/svg" xmlns:xlink="http://www.w3.org/1999/xlink">
    <!-- Generator: Sketch 46 (44423) - http://www.bohemiancoding.com/sketch -->
    <title>Group 23 Copy 2</title>
    <desc>Created with Sketch.</desc>
    <defs></defs>
    <g id="Symbols" stroke="none" stroke-width="1" fill="none" fill-rule="evenodd">
        <g id="rate" transform="translate(-35.000000, -24.000000)" fill="#FFFFFF">
            <g id="Group-23-Copy-2" transform="translate(35.386575, 24.850862)">
                <path d="M22.04533,41.0799964 C11.4841472,41.0799964 2.88940792,32.512871 2.88940792,21.9820186 C2.88940792,11.4511662 11.4841472,2.88404085 22.04533,2.88404085 C32.6065127,2.88404085 41.1983127,11.4511662 41.1983127,21.9820186 C41.1983127,32.512871 32.6065127,41.0799964 22.04533,41.0799964 M22.04533,0 C9.87042908,0 0,9.84208248 0,21.9820186 C0,34.1219548 9.87042908,43.9640373 22.04533,43.9640373 C34.2202309,43.9640373 44.09066,34.1219548 44.09066,21.9820186 C44.09066,9.84208248 34.2202309,0 22.04533,0" id="Fill-1"></path>
                <path d="M16.6791478,16.3289606 C16.6791478,15.0686582 15.6533051,14.0457616 14.3893728,14.0457616 C13.1254406,14.0457616 12.0966585,15.0686582 12.0966585,16.3289606 C12.0966585,17.592194 13.1254406,18.6150906 14.3893728,18.6150906 C15.6533051,18.6150906 16.6791478,17.592194 16.6791478,16.3289606" id="Fill-4"></path>
                <path d="M32.1359892,16.3289606 C32.1359892,15.0686582 31.1101465,14.0457616 29.8462142,14.0457616 C28.582282,14.0457616 27.5534999,15.0686582 27.5534999,16.3289606 C27.5534999,17.592194 28.582282,18.6150906 29.8462142,18.6150906 C31.1101465,18.6150906 32.1359892,17.592194 32.1359892,16.3289606" id="Fill-6"></path>
                <path d="M10.7525853,26.0849859 C12.4074548,30.8917206 16.9576109,34.1831615 22.1367937,34.1831615 C27.3130372,34.1831615 31.860254,30.8917206 33.5180628,26.0849859 L33.5151234,26.0849859 L10.7525853,26.0849859 Z" id="Fill-8"></path>
            </g>
        </g>
    </g>
</svg>