<svg xmlns="http://www.w3.org/2000/svg" xmlns:xlink="http://www.w3.org/1999/xlink" width="368" height="309" viewBox="0 0 368 309">
  <defs>
    <polygon id="a" points="0 100.742 0 0 100.742 0 100.742 100.742"/>
    <polygon id="c" points="0 79.795 0 0 79.796 0 79.796 79.795"/>
    <polygon id="e" points="0 34.911 0 0 34.911 0 34.911 34.911"/>
    <polygon id="g" points="0 34.911 0 0 34.911 0 34.911 34.911"/>
    <polygon id="i" points="0 34.911 0 0 34.911 0 34.911 34.911"/>
    <polygon id="k" points="0 34.911 0 0 34.911 0 34.911 34.911"/>
    <polygon id="m" points="0 79.795 0 0 79.796 0 79.796 79.795"/>
    <polygon id="o" points="0 50.87 0 0 50.87 0 50.87 50.87"/>
    <polygon id="q" points="0 79.795 0 0 79.796 0 79.796 79.795"/>
  </defs>
  <g fill="none" fill-rule="evenodd" opacity=".2" transform="translate(-99 -3)">
    <g transform="rotate(30 -22.403 427.995)">
      <mask id="b" fill="white">
        <use xlink:href="#a"/>
      </mask>
      <path fill="#FFFFFF" d="M50.3709654,-4.71962618e-05 C22.5520729,-4.71962618e-05 -0.000188785045,22.5517425 -0.000188785045,50.371107 C-0.000188785045,78.1899995 22.5520729,100.741789 50.3709654,100.741789 C78.1898579,100.741789 100.74212,78.1899995 100.74212,50.371107 C100.74212,22.5517425 78.1898579,-4.71962618e-05 50.3709654,-4.71962618e-05 M50.3709654,6.60742944 C74.502414,6.60742944 94.134643,26.2396584 94.134643,50.371107 C94.134643,74.5020836 74.502414,94.1343126 50.3709654,94.1343126 C26.2399888,94.1343126 6.60728785,74.5020836 6.60728785,50.371107 C6.60728785,26.2396584 26.2399888,6.60742944 50.3709654,6.60742944" mask="url(#b)"/>
      <path fill="#FFFFFF" fill-rule="nonzero" d="M24.3905233,60.2230786 C28.1754267,71.2347016 38.566239,78.7762243 50.3974897,78.7762243 C62.2281566,78.7762243 72.6184615,71.235308 76.40392,60.2242091 L70.1553865,58.0760526 C67.2803498,66.4389268 59.3854756,72.1687477 50.3974897,72.1687477 C41.4090251,72.1687477 33.5137653,66.438466 30.6391851,58.0752952 L24.3905233,60.2230786 Z" mask="url(#b)"/>
      <path fill="#FFFFFF" d="M38.013285 37.7168453C38.013285 34.8260743 35.6699907 32.4827799 32.7792196 32.4827799 29.8889206 32.4827799 27.5451542 34.8260743 27.5451542 37.7168453 27.5451542 40.6076164 29.8889206 42.9509107 32.7792196 42.9509107 35.6699907 42.9509107 38.013285 40.6076164 38.013285 37.7168453M73.2533178 37.7168453C73.2533178 34.8260743 70.9095514 32.4827799 68.0192523 32.4827799 65.1284813 32.4827799 62.7851869 34.8260743 62.7851869 37.7168453 62.7851869 40.6076164 65.1284813 42.9509107 68.0192523 42.9509107 70.9095514 42.9509107 73.2533178 40.6076164 73.2533178 37.7168453" mask="url(#b)"/>
    </g>
    <g transform="rotate(30 -288.405 543.753)">
      <mask id="d" fill="white">
        <use xlink:href="#c"/>
      </mask>
      <path fill="#FFFFFF" d="M39.8977944,-3.73831776e-05 C17.863028,-3.73831776e-05 -0.000149532709,17.8627664 -0.000149532709,39.8979065 C-0.000149532709,61.9326729 17.863028,79.7954766 39.8977944,79.7954766 C61.9325607,79.7954766 79.7957383,61.9326729 79.7957383,39.8979065 C79.7957383,17.8627664 61.9325607,-3.73831776e-05 39.8977944,-3.73831776e-05 M39.8977944,5.23360748 C59.0118131,5.23360748 74.5620935,20.7838879 74.5620935,39.8979065 C74.5620935,59.0115514 59.0118131,74.5618318 39.8977944,74.5618318 C20.7841495,74.5618318 5.23349533,59.0115514 5.23349533,39.8979065 C5.23349533,20.7838879 20.7841495,5.23360748 39.8977944,5.23360748" mask="url(#d)"/>
      <path fill="#FFFFFF" fill-rule="nonzero" d="M60.5179325,58.9295796 C57.5200088,50.2075592 49.2897055,44.2340187 39.918729,44.2340187 C30.5475925,44.2340187 22.3176051,50.2069646 19.3192024,58.9286842 L24.2685359,60.6301943 C26.5458077,54.006092 32.7992059,49.4676636 39.918729,49.4676636 C47.0379786,49.4676636 53.2916171,54.006544 55.5684974,60.6307942 L60.5179325,58.9295796 Z" mask="url(#d)"/>
      <path fill="#FFFFFF" d="M30.1095327 29.874729C30.1095327 27.5850093 28.2534579 25.7289346 25.9637383 25.7289346 23.6743925 25.7289346 21.8179439 27.5850093 21.8179439 29.874729 21.8179439 32.1644486 23.6743925 34.0205234 25.9637383 34.0205234 28.2534579 34.0205234 30.1095327 32.1644486 30.1095327 29.874729M58.0224299 29.874729C58.0224299 27.5850093 56.1659813 25.7289346 53.8766355 25.7289346 51.5869159 25.7289346 49.7308411 27.5850093 49.7308411 29.874729 49.7308411 32.1644486 51.5869159 34.0205234 53.8766355 34.0205234 56.1659813 34.0205234 58.0224299 32.1644486 58.0224299 29.874729" mask="url(#d)"/>
    </g>
    <g transform="rotate(30 -127.004 645.265)">
      <mask id="f" fill="white">
        <use xlink:href="#e"/>
      </mask>
      <path fill="#FFFFFF" d="M17.455285,-1.63551402e-05 C7.81507477,-1.63551402e-05 -6.54205603e-05,7.81496028 -6.54205603e-05,17.4553341 C-6.54205603e-05,27.0955444 7.81507477,34.910521 17.455285,34.910521 C27.0954953,34.910521 34.9106355,27.0955444 34.9106355,17.4553341 C34.9106355,7.81496028 27.0954953,-1.63551402e-05 17.455285,-1.63551402e-05 M17.455285,2.28970327 C25.8176682,2.28970327 32.6209159,9.09295093 32.6209159,17.4553341 C32.6209159,25.8175537 25.8176682,32.6208014 17.455285,32.6208014 C9.09306542,32.6208014 2.28965421,25.8175537 2.28965421,17.4553341 C2.28965421,9.09295093 9.09306542,2.28970327 17.455285,2.28970327" mask="url(#f)"/>
      <path fill="#FFFFFF" fill-rule="nonzero" d="M26.4765955,25.7816911 C25.1650039,21.9658071 21.5642462,19.3523832 17.4644439,19.3523832 C13.3645717,19.3523832 9.76395222,21.965547 8.45215106,25.7812993 L10.6174845,26.52571 C11.6137909,23.6276653 14.3496526,21.6421028 17.4644439,21.6421028 C20.5791156,21.6421028 23.3150825,23.627863 24.3112176,26.5259725 L26.4765955,25.7816911 Z" mask="url(#f)"/>
      <path fill="#FFFFFF" d="M13.1729206 13.0701939C13.1729206 12.0684416 12.3608879 11.2564089 11.3591355 11.2564089 10.3575467 11.2564089 9.54535047 12.0684416 9.54535047 13.0701939 9.54535047 14.0719463 10.3575467 14.883979 11.3591355 14.883979 12.3608879 14.883979 13.1729206 14.0719463 13.1729206 13.0701939M25.3848131 13.0701939C25.3848131 12.0684416 24.5726168 11.2564089 23.571028 11.2564089 22.5692757 11.2564089 21.757243 12.0684416 21.757243 13.0701939 21.757243 14.0719463 22.5692757 14.883979 23.571028 14.883979 24.5726168 14.883979 25.3848131 14.0719463 25.3848131 13.0701939" mask="url(#f)"/>
    </g>
    <g transform="rotate(30 -279.222 439.667)">
      <mask id="h" fill="white">
        <use xlink:href="#g"/>
      </mask>
      <path fill="#FFFFFF" d="M17.455285,-1.63551402e-05 C7.81507477,-1.63551402e-05 -6.54205603e-05,7.81496028 -6.54205603e-05,17.4553341 C-6.54205603e-05,27.0955444 7.81507477,34.910521 17.455285,34.910521 C27.0954953,34.910521 34.9106355,27.0955444 34.9106355,17.4553341 C34.9106355,7.81496028 27.0954953,-1.63551402e-05 17.455285,-1.63551402e-05 M17.455285,2.28970327 C25.8176682,2.28970327 32.6209159,9.09295093 32.6209159,17.4553341 C32.6209159,25.8175537 25.8176682,32.6208014 17.455285,32.6208014 C9.09306542,32.6208014 2.28965421,25.8175537 2.28965421,17.4553341 C2.28965421,9.09295093 9.09306542,2.28970327 17.455285,2.28970327" mask="url(#h)"/>
      <path fill="#FFFFFF" fill-rule="nonzero" d="M26.4765955,25.7816911 C25.1650039,21.9658071 21.5642462,19.3523832 17.4644439,19.3523832 C13.3645717,19.3523832 9.76395222,21.965547 8.45215106,25.7812993 L10.6174845,26.52571 C11.6137909,23.6276653 14.3496526,21.6421028 17.4644439,21.6421028 C20.5791156,21.6421028 23.3150825,23.627863 24.3112176,26.5259725 L26.4765955,25.7816911 Z" mask="url(#h)"/>
      <path fill="#FFFFFF" d="M13.1729206 13.0701939C13.1729206 12.0684416 12.3608879 11.2564089 11.3591355 11.2564089 10.3575467 11.2564089 9.54535047 12.0684416 9.54535047 13.0701939 9.54535047 14.0719463 10.3575467 14.883979 11.3591355 14.883979 12.3608879 14.883979 13.1729206 14.0719463 13.1729206 13.0701939M25.3848131 13.0701939C25.3848131 12.0684416 24.5726168 11.2564089 23.571028 11.2564089 22.5692757 11.2564089 21.757243 12.0684416 21.757243 13.0701939 21.757243 14.0719463 22.5692757 14.883979 23.571028 14.883979 24.5726168 14.883979 25.3848131 14.0719463 25.3848131 13.0701939" mask="url(#h)"/>
    </g>
    <g transform="rotate(30 -255.962 888.959)">
      <mask id="j" fill="white">
        <use xlink:href="#i"/>
      </mask>
      <path fill="#FFFFFF" d="M17.455285,-1.63551402e-05 C7.81507477,-1.63551402e-05 -6.54205603e-05,7.81496028 -6.54205603e-05,17.4553341 C-6.54205603e-05,27.0955444 7.81507477,34.910521 17.455285,34.910521 C27.0954953,34.910521 34.9106355,27.0955444 34.9106355,17.4553341 C34.9106355,7.81496028 27.0954953,-1.63551402e-05 17.455285,-1.63551402e-05 M17.455285,2.28970327 C25.8176682,2.28970327 32.6209159,9.09295093 32.6209159,17.4553341 C32.6209159,25.8175537 25.8176682,32.6208014 17.455285,32.6208014 C9.09306542,32.6208014 2.28965421,25.8175537 2.28965421,17.4553341 C2.28965421,9.09295093 9.09306542,2.28970327 17.455285,2.28970327" mask="url(#j)"/>
      <path fill="#FFFFFF" fill-rule="nonzero" d="M26.4765955,25.7816911 C25.1650039,21.9658071 21.5642462,19.3523832 17.4644439,19.3523832 C13.3645717,19.3523832 9.76395222,21.965547 8.45215106,25.7812993 L10.6174845,26.52571 C11.6137909,23.6276653 14.3496526,21.6421028 17.4644439,21.6421028 C20.5791156,21.6421028 23.3150825,23.627863 24.3112176,26.5259725 L26.4765955,25.7816911 Z" mask="url(#j)"/>
      <path fill="#FFFFFF" d="M13.1729206 13.0701939C13.1729206 12.0684416 12.3608879 11.2564089 11.3591355 11.2564089 10.3575467 11.2564089 9.54535047 12.0684416 9.54535047 13.0701939 9.54535047 14.0719463 10.3575467 14.883979 11.3591355 14.883979 12.3608879 14.883979 13.1729206 14.0719463 13.1729206 13.0701939M25.3848131 13.0701939C25.3848131 12.0684416 24.5726168 11.2564089 23.571028 11.2564089 22.5692757 11.2564089 21.757243 12.0684416 21.757243 13.0701939 21.757243 14.0719463 22.5692757 14.883979 23.571028 14.883979 24.5726168 14.883979 25.3848131 14.0719463 25.3848131 13.0701939" mask="url(#j)"/>
    </g>
    <g transform="rotate(30 -42.253 247.25)">
      <mask id="l" fill="white">
        <use xlink:href="#k"/>
      </mask>
      <path fill="#FFFFFF" d="M17.455285,-1.63551402e-05 C7.81507477,-1.63551402e-05 -6.54205603e-05,7.81496028 -6.54205603e-05,17.4553341 C-6.54205603e-05,27.0955444 7.81507477,34.910521 17.455285,34.910521 C27.0954953,34.910521 34.9106355,27.0955444 34.9106355,17.4553341 C34.9106355,7.81496028 27.0954953,-1.63551402e-05 17.455285,-1.63551402e-05 M17.455285,2.28970327 C25.8176682,2.28970327 32.6209159,9.09295093 32.6209159,17.4553341 C32.6209159,25.8175537 25.8176682,32.6208014 17.455285,32.6208014 C9.09306542,32.6208014 2.28965421,25.8175537 2.28965421,17.4553341 C2.28965421,9.09295093 9.09306542,2.28970327 17.455285,2.28970327" mask="url(#l)"/>
      <path fill="#FFFFFF" fill-rule="nonzero" d="M26.4765955,25.7816911 C25.1650039,21.9658071 21.5642462,19.3523832 17.4644439,19.3523832 C13.3645717,19.3523832 9.76395222,21.965547 8.45215106,25.7812993 L10.6174845,26.52571 C11.6137909,23.6276653 14.3496526,21.6421028 17.4644439,21.6421028 C20.5791156,21.6421028 23.3150825,23.627863 24.3112176,26.5259725 L26.4765955,25.7816911 Z" mask="url(#l)"/>
      <path fill="#FFFFFF" d="M13.1729206 13.0701939C13.1729206 12.0684416 12.3608879 11.2564089 11.3591355 11.2564089 10.3575467 11.2564089 9.54535047 12.0684416 9.54535047 13.0701939 9.54535047 14.0719463 10.3575467 14.883979 11.3591355 14.883979 12.3608879 14.883979 13.1729206 14.0719463 13.1729206 13.0701939M25.3848131 13.0701939C25.3848131 12.0684416 24.5726168 11.2564089 23.571028 11.2564089 22.5692757 11.2564089 21.757243 12.0684416 21.757243 13.0701939 21.757243 14.0719463 22.5692757 14.883979 23.571028 14.883979 24.5726168 14.883979 25.3848131 14.0719463 25.3848131 13.0701939" mask="url(#l)"/>
    </g>
    <g transform="rotate(-45 261.609 -322.121)">
      <mask id="n" fill="white">
        <use xlink:href="#m"/>
      </mask>
      <path fill="#FFFFFF" d="M39.8977944,-3.73831776e-05 C17.863028,-3.73831776e-05 -0.000149532709,17.8627664 -0.000149532709,39.8979065 C-0.000149532709,61.9326729 17.863028,79.7954766 39.8977944,79.7954766 C61.9325607,79.7954766 79.7957383,61.9326729 79.7957383,39.8979065 C79.7957383,17.8627664 61.9325607,-3.73831776e-05 39.8977944,-3.73831776e-05 M39.8977944,5.23360748 C59.0118131,5.23360748 74.5620935,20.7838879 74.5620935,39.8979065 C74.5620935,59.0115514 59.0118131,74.5618318 39.8977944,74.5618318 C20.7841495,74.5618318 5.23349533,59.0115514 5.23349533,39.8979065 C5.23349533,20.7838879 20.7841495,5.23360748 39.8977944,5.23360748" mask="url(#n)"/>
      <path fill="#FFFFFF" fill-rule="nonzero" d="M19.3192264,47.7014484 C22.3171697,56.423526 30.5475161,62.3970093 39.9188037,62.3970093 C49.289629,62.3970093 57.5195735,56.4240063 60.5179564,47.7023439 L55.568623,46.0008337 C53.2913662,52.6248925 47.0380005,57.1633645 39.9188037,57.1633645 C32.7992278,57.1633645 26.5455567,52.6245276 24.2686615,46.0002338 L19.3192264,47.7014484 Z" mask="url(#n)"/>
      <path fill="#FFFFFF" d="M30.1095327 29.874729C30.1095327 27.5850093 28.2534579 25.7289346 25.9637383 25.7289346 23.6743925 25.7289346 21.8179439 27.5850093 21.8179439 29.874729 21.8179439 32.1644486 23.6743925 34.0205234 25.9637383 34.0205234 28.2534579 34.0205234 30.1095327 32.1644486 30.1095327 29.874729M58.0224299 29.874729C58.0224299 27.5850093 56.1659813 25.7289346 53.8766355 25.7289346 51.5869159 25.7289346 49.7308411 27.5850093 49.7308411 29.874729 49.7308411 32.1644486 51.5869159 34.0205234 53.8766355 34.0205234 56.1659813 34.0205234 58.0224299 32.1644486 58.0224299 29.874729" mask="url(#n)"/>
    </g>
    <path fill="#FFFFFF" fill-rule="nonzero" d="M23.5,44.796875 L20.0925,41.7329104 C7.99,30.8929751 0,23.7437245 0,14.9696441 C0,7.82039339 5.687,2.203125 12.925,2.203125 C17.014,2.203125 20.9385,4.08328508 23.5,7.05440225 C26.0615,4.08328508 29.986,2.203125 34.075,2.203125 C41.313,2.203125 47,7.82039339 47,14.9696441 C47,23.7437245 39.01,30.8929751 26.9075,41.7561223 L23.5,44.796875 Z" transform="rotate(-45 146.037 -162.255)"/>
    <path fill="#FFFFFF" fill-rule="nonzero" d="M32,61 L27.36,56.8277929 C10.88,42.06703 0,32.3318801 0,20.3841962 C0,10.6490463 7.744,3 17.6,3 C23.168,3 28.512,5.56021798 32,9.60599455 C35.488,5.56021798 40.832,3 46.4,3 C56.256,3 64,10.6490463 64,20.3841962 C64,32.3318801 53.12,42.06703 36.64,56.8594005 L32,61 Z" transform="translate(434.326 100.26)"/>
    <path fill="#FFFFFF" fill-rule="nonzero" d="M32,61 L27.36,56.8277929 C10.88,42.06703 0,32.3318801 0,20.3841962 C0,10.6490463 7.744,3 17.6,3 C23.168,3 28.512,5.56021798 32,9.60599455 C35.488,5.56021798 40.832,3 46.4,3 C56.256,3 64,10.6490463 64,20.3841962 C64,32.3318801 53.12,42.06703 36.64,56.8594005 L32,61 Z" transform="translate(247.461)"/>
    <path fill="#FFFFFF" fill-rule="nonzero" d="M23.5,44.796875 L20.0925,41.7329104 C7.99,30.8929751 0,23.7437245 0,14.9696441 C0,7.82039339 5.687,2.203125 12.925,2.203125 C17.014,2.203125 20.9385,4.08328508 23.5,7.05440225 C26.0615,4.08328508 29.986,2.203125 34.075,2.203125 C41.313,2.203125 47,7.82039339 47,14.9696441 C47,23.7437245 39.01,30.8929751 26.9075,41.7561223 L23.5,44.796875 Z" transform="rotate(-45 219.581 -38.81)"/>
    <path fill="#FFFFFF" fill-rule="nonzero" d="M40,76.25 L34.2,71.0347411 C13.6,52.5837875 0,40.4148501 0,25.4802452 C0,13.3113079 9.68,3.75 22,3.75 C28.96,3.75 35.64,6.95027248 40,12.0074932 C44.36,6.95027248 51.04,3.75 58,3.75 C70.32,3.75 80,13.3113079 80,25.4802452 C80,40.4148501 66.4,52.5837875 45.8,71.0742507 L40,76.25 Z" transform="rotate(-45 418.315 -290.81)"/>
    <path fill="#FFFFFF" fill-rule="nonzero" d="M23.5,44.796875 L20.0925,41.7329104 C7.99,30.8929751 0,23.7437245 0,14.9696441 C0,7.82039339 5.687,2.203125 12.925,2.203125 C17.014,2.203125 20.9385,4.08328508 23.5,7.05440225 C26.0615,4.08328508 29.986,2.203125 34.075,2.203125 C41.313,2.203125 47,7.82039339 47,14.9696441 C47,23.7437245 39.01,30.8929751 26.9075,41.7561223 L23.5,44.796875 Z" transform="rotate(30 -379.702 363.415)"/>
    <path fill="#FFFFFF" fill-rule="nonzero" d="M23.5,44.796875 L20.0925,41.7329104 C7.99,30.8929751 0,23.7437245 0,14.9696441 C0,7.82039339 5.687,2.203125 12.925,2.203125 C17.014,2.203125 20.9385,4.08328508 23.5,7.05440225 C26.0615,4.08328508 29.986,2.203125 34.075,2.203125 C41.313,2.203125 47,7.82039339 47,14.9696441 C47,23.7437245 39.01,30.8929751 26.9075,41.7561223 L23.5,44.796875 Z" transform="rotate(30 188.714 830.53)"/>
    <g transform="rotate(-45 493.494 -438.692)">
      <mask id="p" fill="white">
        <use xlink:href="#o"/>
      </mask>
      <path fill="#FFFFFF" d="M25.4348439,-2.38317757e-05 C11.3876804,-2.38317757e-05 -9.53271021e-05,11.3875136 -9.53271021e-05,25.4349154 C-9.53271021e-05,39.482079 11.3876804,50.8696164 25.4348439,50.8696164 C39.4820075,50.8696164 50.8697832,39.482079 50.8697832,25.4349154 C50.8697832,11.3875136 39.4820075,-2.38317757e-05 25.4348439,-2.38317757e-05 M25.4348439,3.33642477 C37.6200308,3.33642477 47.5333346,13.2497285 47.5333346,25.4349154 C47.5333346,37.619864 37.6200308,47.5331678 25.4348439,47.5331678 C13.2498953,47.5331678 3.33635327,37.619864 3.33635327,25.4349154 C3.33635327,13.2497285 13.2498953,3.33642477 25.4348439,3.33642477" mask="url(#p)"/>
      <path fill="#FFFFFF" fill-rule="nonzero" d="M12.3160068,30.4096734 C14.2271957,35.9699978 19.4740415,39.7780935 25.4482374,39.7780935 C31.4221385,39.7780935 36.6687281,35.970304 38.5801972,30.4102442 L35.4249972,29.3255315 C33.9732459,33.548369 29.9867253,36.4416449 25.4482374,36.4416449 C20.9095077,36.4416449 16.9227924,33.5481363 15.4712717,29.3251491 L12.3160068,30.4096734 Z" mask="url(#p)"/>
      <path fill="#FFFFFF" d="M19.1948271 19.0451397C19.1948271 17.5854435 18.0115794 16.4021958 16.5518832 16.4021958 15.0924252 16.4021958 13.9089393 17.5854435 13.9089393 19.0451397 13.9089393 20.504836 15.0924252 21.6880836 16.5518832 21.6880836 18.0115794 21.6880836 19.1948271 20.504836 19.1948271 19.0451397M36.9892991 19.0451397C36.9892991 17.5854435 35.8058131 16.4021958 34.3463551 16.4021958 32.8866589 16.4021958 31.7034112 17.5854435 31.7034112 19.0451397 31.7034112 20.504836 32.8866589 21.6880836 34.3463551 21.6880836 35.8058131 21.6880836 36.9892991 20.504836 36.9892991 19.0451397" mask="url(#p)"/>
    </g>
    <g transform="rotate(-45 266.166 110.158)">
      <mask id="r" fill="white">
        <use xlink:href="#q"/>
      </mask>
      <path fill="#FFFFFF" d="M39.8977944,-3.73831776e-05 C17.863028,-3.73831776e-05 -0.000149532709,17.8627664 -0.000149532709,39.8979065 C-0.000149532709,61.9326729 17.863028,79.7954766 39.8977944,79.7954766 C61.9325607,79.7954766 79.7957383,61.9326729 79.7957383,39.8979065 C79.7957383,17.8627664 61.9325607,-3.73831776e-05 39.8977944,-3.73831776e-05 M39.8977944,5.23360748 C59.0118131,5.23360748 74.5620935,20.7838879 74.5620935,39.8979065 C74.5620935,59.0115514 59.0118131,74.5618318 39.8977944,74.5618318 C20.7841495,74.5618318 5.23349533,59.0115514 5.23349533,39.8979065 C5.23349533,20.7838879 20.7841495,5.23360748 39.8977944,5.23360748" mask="url(#r)"/>
      <path fill="#FFFFFF" fill-rule="nonzero" d="M19.3192264,47.7014484 C22.3171697,56.423526 30.5475161,62.3970093 39.9188037,62.3970093 C49.289629,62.3970093 57.5195735,56.4240063 60.5179564,47.7023439 L55.568623,46.0008337 C53.2913662,52.6248925 47.0380005,57.1633645 39.9188037,57.1633645 C32.7992278,57.1633645 26.5455567,52.6245276 24.2686615,46.0002338 L19.3192264,47.7014484 Z" mask="url(#r)"/>
      <path fill="#FFFFFF" d="M30.1095327 29.874729C30.1095327 27.5850093 28.2534579 25.7289346 25.9637383 25.7289346 23.6743925 25.7289346 21.8179439 27.5850093 21.8179439 29.874729 21.8179439 32.1644486 23.6743925 34.0205234 25.9637383 34.0205234 28.2534579 34.0205234 30.1095327 32.1644486 30.1095327 29.874729M58.0224299 29.874729C58.0224299 27.5850093 56.1659813 25.7289346 53.8766355 25.7289346 51.5869159 25.7289346 49.7308411 27.5850093 49.7308411 29.874729 49.7308411 32.1644486 51.5869159 34.0205234 53.8766355 34.0205234 56.1659813 34.0205234 58.0224299 32.1644486 58.0224299 29.874729" mask="url(#r)"/>
    </g>
  </g>
</svg>
