<?xml version="1.0" encoding="UTF-8"?>
<svg width="45px" height="46px" viewBox="0 0 45 46" version="1.1" xmlns="http://www.w3.org/2000/svg" xmlns:xlink="http://www.w3.org/1999/xlink">
    <!-- Generator: Sketch 46 (44423) - http://www.bohemiancoding.com/sketch -->
    <title>Page 1 Copy 3</title>
    <desc>Created with Sketch.</desc>
    <defs></defs>
    <g id="Symbols" stroke="none" stroke-width="1" fill="none" fill-rule="evenodd">
        <g id="rate" transform="translate(-35.000000, -426.000000)" fill="#FFFFFF">
            <g id="Page-1-Copy-3" transform="translate(35.386575, 426.074826)">
                <path d="M22.2228982,-3.31608655e-15 C9.95025956,-3.31608655e-15 0.000592594816,10.1204045 0.000592594816,22.6036431 C0.000592594816,35.0868817 9.95025956,45.2072861 22.2228982,45.2072861 C34.4955369,45.2072861 44.4452038,35.0868817 44.4452038,22.6036431 C44.4452038,10.1204045 34.4955369,-3.31608655e-15 22.2228982,-3.31608655e-15 M22.2228982,2.96559797 C32.8688641,2.96559797 41.5296373,11.7749911 41.5296373,22.6036431 C41.5296373,33.432295 32.8688641,42.2416882 22.2228982,42.2416882 C11.5769323,42.2416882 2.91319612,33.432295 2.91319612,22.6036431 C2.91319612,11.7749911 11.5769323,2.96559797 22.2228982,2.96559797" id="Fill-1"></path>
                <path d="M33.7073858,33.3858822 C32.0392313,28.4432189 27.4525475,25.0587001 22.2347501,25.0587001 C17.0139898,25.0587001 12.4302689,28.4432189 10.7591515,33.3858822 L13.5176804,34.3472905 C14.7858333,30.5950857 18.2702908,28.0242981 22.2347501,28.0242981 C26.1992094,28.0242981 29.683667,30.5950857 30.9488569,34.3503043 L33.7073858,33.3858822 Z" id="Fill-4"></path>
                <path d="M16.770137,16.9247038 C16.770137,15.6287616 15.7360591,14.5769387 14.4619802,14.5769387 C13.1879013,14.5769387 12.1508604,15.6287616 12.1508604,16.9247038 C12.1508604,18.2236598 13.1879013,19.2724688 14.4619802,19.2724688 C15.7360591,19.2724688 16.770137,18.2236598 16.770137,16.9247038" id="Fill-6"></path>
                <path d="M32.3171583,16.9247038 C32.3171583,15.6287616 31.2830804,14.5769387 30.0090015,14.5769387 C28.7349226,14.5769387 27.6978817,15.6287616 27.6978817,16.9247038 C27.6978817,18.2236598 28.7349226,19.2724688 30.0090015,19.2724688 C31.2830804,19.2724688 32.3171583,18.2236598 32.3171583,16.9247038" id="Fill-8"></path>
            </g>
        </g>
    </g>
</svg>