<?xml version="1.0" encoding="utf-8"?>
<!-- Generator: Adobe Illustrator 21.1.0, SVG Export Plug-In . SVG Version: 6.00 Build 0)  -->
<svg version="1.1" id="Layer_1" xmlns="http://www.w3.org/2000/svg" xmlns:xlink="http://www.w3.org/1999/xlink" x="0px" y="0px"
	 viewBox="0 0 752 752" style="enable-background:new 0 0 752 752;" xml:space="preserve">
<style type="text/css">
	.st0{fill:#71B47C;}
	.st1{fill:#4A5072;}
	.st2{fill:#F1AAB4;}
	.st3{fill:#EAE5E5;}
	.st4{fill:#EC5B5A;}
	.st5{fill:#FFA403;}
	.st6{fill:none;stroke:#FFFFFF;stroke-width:4;stroke-linecap:round;stroke-linejoin:round;stroke-miterlimit:10;}
	.st7{fill:#FFFFFF;}
	.st8{opacity:0.1;fill:#4A5072;}
	.st9{opacity:0.2;fill:#EAE5E5;stroke:#EAE5E5;stroke-width:3;stroke-linecap:round;stroke-linejoin:round;stroke-miterlimit:10;}
	.st10{opacity:0.2;fill:#4A5072;}
	.st11{fill:#78CE7C;}
</style>
<g>
	<path class="st0" d="M667.1,490.4c-3.9,0-7.5,1.1-10.5,3.1c-6.2-14-20.2-23.7-36.5-23.7c-9.6,0-18.4,3.4-25.3,9.1
		c-6.8-5.6-15.6-9-25.1-9.1c-9.8-9.1-22.9-14.7-37.3-14.7c-15.8,0-30,6.7-40,17.4c-4.5-1.8-9.4-2.7-14.5-2.7c-0.4,0-0.7,0-1.1,0
		c-0.4,0-0.9,0-1.3,0c-11.6,0-22,4.9-29.3,12.8c-7.3-7.9-17.7-12.8-29.3-12.8c-3.1,0-6.1,0.4-9,1c-11.6-15.1-29.9-24.8-50.5-24.8
		c-35.2,0-63.7,28.5-63.7,63.7h144h137.4h111.2C686.5,499,677.8,490.4,667.1,490.4z"/>
	<circle class="st1" cx="187.3" cy="148.3" r="20"/>
	<g>
		<circle class="st1" cx="182.6" cy="220.7" r="22.4"/>
		<circle class="st1" cx="225.9" cy="220.7" r="22.4"/>
	</g>
	<circle class="st1" cx="204.2" cy="177.3" r="38.5"/>
	<rect x="195.8" y="158.7" class="st2" width="16.9" height="71.1"/>
	<path class="st3" d="M178.3,639.4L178.3,639.4c-10.5,0-19-8.5-19-19V371.8c0-10.5,8.5-19,19-19h0c10.5,0,19,8.5,19,19v248.6
		C197.3,630.9,188.8,639.4,178.3,639.4z"/>
	<path class="st3" d="M230.5,639.4L230.5,639.4c-10.5,0-19-8.5-19-19V371.8c0-10.5,8.5-19,19-19h0c10.5,0,19,8.5,19,19v248.6
		C249.5,630.9,241,639.4,230.5,639.4z"/>
	<path class="st4" d="M215.6,216.2h-22.4c-3.2,0-5.9,2.6-5.9,5.9v13.5c0,3.2,2.6,5.9,5.9,5.9h22.4c3.2,0,5.9-2.6,5.9-5.9v-13.5
		C221.5,218.9,218.9,216.2,215.6,216.2z"/>
	<rect x="159.3" y="342.3" class="st2" width="38" height="271.1"/>
	<rect x="211.5" y="342.3" class="st2" width="38" height="271.1"/>
	<path class="st4" d="M204.4,226.4c-37,0-67,30-67,67v48.9h134v-48.9C271.4,256.4,241.4,226.4,204.4,226.4z"/>
	<rect x="159.3" y="342.3" class="st1" width="90.1" height="105.5"/>
	<g>
		
			<ellipse transform="matrix(0.7071 -0.7071 0.7071 0.7071 -20.8812 320.1249)" class="st5" cx="376" cy="185.3" rx="72.7" ry="72.7"/>
		<line class="st6" x1="415.2" y1="146" x2="338.4" y2="222.9"/>
		<path class="st6" d="M427.3,186.3c0,0-17.9-6.8-31.7-20.7c-13.8-13.8-20.7-31.7-20.7-31.7"/>
		<path class="st6" d="M326.3,182.6c0,0,17.9,6.8,31.7,20.7c13.8,13.8,20.7,31.7,20.7,31.7"/>
		<path class="st6" d="M333.4,154.3c0,0,25.1,9.6,44.5,29s29,44.5,29,44.5"/>
	</g>
	<path class="st3" d="M410,379.2h54.3v130.5h-69.5V394.4C394.8,386,401.6,379.2,410,379.2z"/>
	
		<rect x="435.7" y="395.2" transform="matrix(-1 -4.479407e-11 4.479407e-11 -1 887.9501 806.9518)" class="st7" width="16.5" height="16.5"/>
	
		<rect x="406.9" y="395.2" transform="matrix(-1 -4.534429e-11 4.534429e-11 -1 830.3162 806.9518)" class="st7" width="16.5" height="16.5"/>
	
		<rect x="435.7" y="421.7" transform="matrix(-1 -4.534429e-11 4.534429e-11 -1 887.9501 859.9242)" class="st7" width="16.5" height="16.5"/>
	
		<rect x="406.9" y="421.7" transform="matrix(-1 -4.479407e-11 4.479407e-11 -1 830.3162 859.9242)" class="st7" width="16.5" height="16.5"/>
	
		<rect x="435.7" y="448.2" transform="matrix(-1 -4.479407e-11 4.479407e-11 -1 887.9501 912.8965)" class="st7" width="16.5" height="16.5"/>
	
		<rect x="406.9" y="448.2" transform="matrix(-1 -4.468438e-11 4.468438e-11 -1 830.3162 912.8965)" class="st7" width="16.5" height="16.5"/>
	
		<rect x="435.7" y="474.7" transform="matrix(-1 -4.468438e-11 4.468438e-11 -1 887.9501 965.8689)" class="st7" width="16.5" height="16.5"/>
	
		<rect x="406.9" y="474.7" transform="matrix(-1 -4.479407e-11 4.479407e-11 -1 830.3162 965.8689)" class="st7" width="16.5" height="16.5"/>
	<path class="st3" d="M584.1,379.2h-54.3v130.5h69.5V394.4C599.3,386,592.5,379.2,584.1,379.2z"/>
	<rect x="450.9" y="326.6" class="st3" width="90.7" height="183.1"/>
	<polygon class="st4" points="496.3,260.3 450.9,326.6 541.6,326.6 	"/>
	<rect x="541.7" y="395.4" class="st7" width="16.5" height="16.5"/>
	<rect x="570.7" y="395.2" class="st7" width="16.5" height="16.5"/>
	<rect x="541.7" y="421.9" class="st7" width="16.5" height="16.5"/>
	<rect x="570.7" y="421.7" class="st7" width="16.5" height="16.5"/>
	<rect x="541.7" y="448.4" class="st7" width="16.5" height="16.5"/>
	<rect x="570.7" y="448.2" class="st7" width="16.5" height="16.5"/>
	<rect x="541.9" y="474.7" class="st7" width="16.5" height="16.5"/>
	<rect x="570.7" y="474.7" class="st7" width="16.5" height="16.5"/>
	<rect x="473.6" y="368.7" class="st7" width="16.5" height="16.5"/>
	<rect x="502.4" y="368.7" class="st7" width="16.5" height="16.5"/>
	<rect x="473.6" y="395.2" class="st7" width="16.5" height="16.5"/>
	<rect x="502.4" y="395.2" class="st7" width="16.5" height="16.5"/>
	<rect x="473.6" y="342.2" class="st7" width="16.5" height="16.5"/>
	<rect x="502.4" y="342.2" class="st7" width="16.5" height="16.5"/>
	<rect x="473.6" y="421.7" class="st7" width="16.5" height="16.5"/>
	<rect x="502.4" y="421.7" class="st7" width="16.5" height="16.5"/>
	<rect x="473.6" y="448.2" class="st7" width="16.5" height="16.5"/>
	<rect x="502.4" y="448.2" class="st7" width="16.5" height="16.5"/>
	<rect x="473.6" y="474.7" class="st7" width="16.5" height="16.5"/>
	<rect x="502.4" y="474.7" class="st7" width="16.5" height="16.5"/>
	<rect x="137.4" y="298.3" class="st2" width="21.9" height="40"/>
	<rect x="137.4" y="298.3" class="st8" width="21.9" height="40"/>
	<g>
		<line class="st9" x1="182.9" y1="370.2" x2="192.6" y2="379.9"/>
		<line class="st9" x1="199.2" y1="370.2" x2="208.9" y2="379.9"/>
		<line class="st9" x1="215.4" y1="370.2" x2="225.1" y2="379.9"/>
	</g>
	<g>
		<g>
			<path class="st2" d="M69.7,262.8L69.7,262.8c5.5-5.5,14.4-5.5,19.8,0l65.8,65.8c5.5,5.5,5.5,14.4,0,19.8h0
				c-5.5,5.5-14.4,5.5-19.8,0l-65.8-65.8C64.2,277.2,64.2,268.3,69.7,262.8z"/>
		</g>
	</g>
	<g>
		<rect x="137.4" y="290.7" class="st4" width="21.9" height="7.6"/>
		<rect x="137.4" y="290.7" class="st10" width="21.9" height="7.6"/>
	</g>
	<g>
		<rect x="249.5" y="290.7" class="st4" width="21.9" height="7.6"/>
		<rect x="249.5" y="290.7" class="st10" width="21.9" height="7.6"/>
	</g>
	<path class="st2" d="M249.5,298.3v8.2v46.3v69.8c2.2,1.5,5,2.4,7.9,2.4c7.8,0,14-6.3,14-14v-58.2v-34.7v-19.8H249.5z"/>
	<rect x="159.3" y="447.8" class="st10" width="38" height="7.6"/>
	<rect x="211.5" y="447.8" class="st10" width="38" height="7.6"/>
	<path class="st8" d="M212.7,209.6v-50.3h-16.9v50.3c2.7,0.7,5.5,1.1,8.5,1.1C207.1,210.7,210,210.3,212.7,209.6z"/>
	<circle class="st2" cx="204.2" cy="177.3" r="29"/>
	<rect x="440.9" y="379.2" class="st10" width="10" height="130.5"/>
	<rect x="541.6" y="379.2" class="st10" width="10" height="130.5"/>
	<path class="st11" d="M506.2,509.7h66.4h79.1c0-7.6-6.2-13.8-13.8-13.8c-2.7,0-5.3,0.8-7.5,2.2c-4.4-9.9-14.4-16.8-25.9-16.8
		c-6.8,0-13.1,2.4-18,6.4c-4.9-4-11.1-6.4-17.8-6.4c-6.9-6.5-16.3-10.5-26.5-10.5c-0.5,0-0.9,0-1.4,0c-14.3,0.5-26.5,10.5-30.4,24.2
		L506.2,509.7z"/>
	<path class="st11" d="M421,499.9c-0.6,0-1.2,0.1-1.8,0.2c-4-11.8-15.1-20.3-28.3-20.3c-10.1,0-19,5-24.4,12.7c-0.2,0-0.4,0-0.6,0
		c-4.3,0-8.3,1.6-11.3,4.2c-4.4-7.2-12.3-12.1-21.4-12.1c-13.8,0-25,11.2-25,25h122.4C430.7,504.3,426.3,499.9,421,499.9z"/>
</g>
</svg>
